<svg width="27" height="26" viewBox="0 0 27 26" fill="none" xmlns="http://www.w3.org/2000/svg">
<rect width="27" height="26" rx="6" fill="white"/>
<path d="M7.58398 3.48438L7.93555 3.60156C8.93164 3.52344 11.2266 3.48438 14.8203 3.48438L16.2266 3.92383C17.125 4.04102 17.7305 4.22656 18.043 4.48047C19.4883 5.75 20.2109 6.84375 20.2109 7.76172C20.1133 8.26953 19.9082 9.07031 19.5957 10.1641C18.9121 10.8672 18.2676 11.4434 17.6621 11.8926C17.6621 12.0684 17.8477 12.2246 18.2188 12.3613C18.4141 12.498 18.7266 12.6543 19.1562 12.8301C19.3906 13.0645 19.7715 13.5332 20.2988 14.2363C21.002 14.9395 21.4121 15.7891 21.5293 16.7852L21.5586 17.1074C21.5586 17.3027 21.4902 17.4004 21.3535 17.4004V17.4297C21.3535 17.5469 21.4609 17.8008 21.6758 18.1914V18.4551C21.6758 18.6309 21.5391 19.0215 21.2656 19.627C21.2656 19.8809 21.0508 20.0469 20.6211 20.125C20.3672 20.125 20.1133 20.3008 19.8594 20.6523V20.7109C19.8594 20.75 19.9375 20.7891 20.0938 20.8281V20.8574C20.0547 20.9551 19.9863 21.0039 19.8887 21.0039C19.8887 20.8867 19.8594 20.8281 19.8008 20.8281C19.7617 20.8281 19.7227 20.9062 19.6836 21.0625C19.332 21.0625 18.9121 21.2188 18.4238 21.5312V21.5898H18.5117C18.6289 21.5898 18.9121 21.4922 19.3613 21.2969V21.3262C19.0684 21.5996 18.4727 21.834 17.5742 22.0293C16.3242 22.5957 13.8047 22.8789 10.0156 22.8789V22.8203L9.98633 22.6738C9.08789 22.6738 8.26758 22.8496 7.52539 23.2012C7.21289 23.2012 7.05664 22.6641 7.05664 21.5898C7.05664 21.4336 7.64258 21.1895 8.81445 20.8574C9.67383 20.7598 10.1035 20.6719 10.1035 20.5938V20.5645C9.98633 20.5645 9.84961 19.7441 9.69336 18.1035C9.6543 17.459 9.5957 17.0195 9.51758 16.7852C9.51758 16.5703 9.5957 16.2871 9.75195 15.9355C9.71289 14.5293 9.60547 13.8262 9.42969 13.8262C9.3125 13.8262 9.21484 12.2344 9.13672 9.05078V6.0625C8.70703 5.88672 8.42383 5.79883 8.28711 5.79883H8.08203C7.94531 5.79883 7.85742 5.84766 7.81836 5.94531V6.00391L7.84766 6.23828C7.84766 6.27734 7.71094 6.59961 7.4375 7.20508V7.26367L6.96875 7.29297C6.91016 7.19531 6.72461 7.13672 6.41211 7.11719C6.23633 7.11719 6.11914 6.54102 6.06055 5.38867C6.00195 5.05664 5.89453 4.67578 5.73828 4.24609C6.03125 3.83594 6.35352 3.63086 6.70508 3.63086C6.70508 3.5918 6.99805 3.54297 7.58398 3.48438ZM10.3086 4.45117L10.3672 4.48047H11.1875C11.9297 4.48047 12.3008 4.40234 12.3008 4.24609V4.2168C12.3008 4.19727 12.2422 4.16797 12.125 4.12891C10.9727 4.1875 10.3672 4.29492 10.3086 4.45117ZM8.99023 4.36328L9.75195 4.59766H9.81055C9.92773 4.59766 10.0254 4.53906 10.1035 4.42188C10.1035 4.32422 9.87891 4.25586 9.42969 4.2168C9.13672 4.23633 8.99023 4.28516 8.99023 4.36328ZM13.0918 4.2168H12.9453V4.30469H13.0918V4.2168ZM17.8379 4.91992L17.75 5.00781V5.03711L17.8672 5.18359H18.043L18.1016 5.0957V5.06641L17.9844 4.91992H17.8379ZM10.8359 5.33008V5.38867L10.9238 5.50586H11.041C12.0371 5.4082 12.5742 5.29102 12.6523 5.1543L12.5938 5.0957C11.4219 5.1543 10.8359 5.23242 10.8359 5.33008ZM11.041 6.12109C11.1973 10.3203 11.334 12.4199 11.4512 12.4199L11.5391 12.4785H11.5684L14.2344 11.8633C15.4062 11.707 15.9922 11.5508 15.9922 11.3945C17.3984 10.3008 18.1016 9.54883 18.1016 9.13867V8.96289C17.8867 7.84961 17.7793 7.22461 17.7793 7.08789C17.7793 6.58008 17.4375 6.10156 16.7539 5.65234C16.5 5.59375 16.0215 5.55469 15.3184 5.53516C12.4668 5.69141 11.041 5.88672 11.041 6.12109ZM17.8379 5.79883H17.5742V5.88672C17.9258 6.19922 18.1016 6.63867 18.1016 7.20508C18.2578 7.77148 18.3652 8.10352 18.4238 8.20117H18.4824V7.9375C18.3066 6.51172 18.0918 5.79883 17.8379 5.79883ZM19.4492 6.44336H19.3613V6.53125L19.5078 6.64844H19.5957V6.56055L19.4492 6.44336ZM18.9219 7.11719L18.834 7.20508L18.8633 7.32227H18.9512L19.127 7.17578L19.0391 7.11719H18.9219ZM19.127 7.87891L19.0391 7.82031L19.0098 7.84961V7.99609L19.0684 8.05469L19.127 8.02539V7.87891ZM9.51758 8.61133L9.42969 8.69922V8.96289L9.51758 9.02148H9.54688L9.63477 8.96289V8.8457C9.63477 8.70898 9.5957 8.63086 9.51758 8.61133ZM17.3691 11.2773L17.252 11.3945H17.3398L17.3984 11.3359V11.2773H17.3691ZM13.1211 12.5664H13.209V12.5957C14.4199 12.498 15.0254 12.3906 15.0254 12.2734V12.2441H14.8789C13.8047 12.2637 13.2188 12.3711 13.1211 12.5664ZM16.2266 12.5371V12.5957H16.2559C16.666 12.5957 17.1934 12.6934 17.8379 12.8887C17.8965 12.8887 17.9258 12.8496 17.9258 12.7715C17.8086 12.498 17.5449 12.3613 17.1348 12.3613H16.8125C16.4219 12.3613 16.2266 12.4199 16.2266 12.5371ZM18.3066 12.9766V13.0059C18.541 13.2793 18.7559 13.416 18.9512 13.416V13.3867C18.9512 13.1914 18.7363 13.0547 18.3066 12.9766ZM13.2383 13.6211C13.2383 13.6602 13.2773 13.6797 13.3555 13.6797C13.8828 13.6602 14.4395 13.582 15.0254 13.4453L16.0508 13.416H16.4023L16.6074 13.3867V13.3281C16.6074 13.2305 16.3145 13.1816 15.7285 13.1816H15.2012C14.1465 13.1816 13.4922 13.3281 13.2383 13.6211ZM12.9453 13.5039H12.8281V13.5625H12.9453V13.5039ZM17.3984 13.5039H17.3398V13.6211H17.3984V13.5039ZM11.3926 13.9141V13.9727H11.4805C11.9688 13.9141 12.2129 13.8359 12.2129 13.7383H12.125C11.9492 13.7383 11.7051 13.7969 11.3926 13.9141ZM11.334 14.3535L11.2461 14.5L11.2168 15.1445C11.2949 18.4844 11.4414 20.3789 11.6562 20.8281C11.7539 21.1602 11.9883 21.3262 12.3594 21.3262L14.9668 21.4434C16.0215 21.3848 17.3105 20.9355 18.834 20.0957C19.5762 19.3535 19.9473 18.8457 19.9473 18.5723C20.0254 18.5723 20.0742 18.4746 20.0938 18.2793V18.1914C20.0938 17.3125 19.8301 16.375 19.3027 15.3789C18.7559 14.793 18.3164 14.5 17.9844 14.5H17.75C17.6328 14.4609 17.5742 14.4316 17.5742 14.4121C17.5742 14.334 17.6426 14.2949 17.7793 14.2949V14.2363C17.6426 14.041 17.4277 13.9434 17.1348 13.9434H17.1055V13.9727L17.252 14.1484V14.207H17.1934C16.2949 13.9141 15.5723 13.7676 15.0254 13.7676H14.8789C13.5312 13.7676 12.3496 13.9629 11.334 14.3535ZM19.127 14.002L19.0391 14.0605C19.1172 14.3535 19.3613 14.6562 19.7715 14.9688H19.8594V14.8516C19.8008 14.5781 19.5664 14.2949 19.1562 14.002H19.127ZM18.7754 20.8867L18.834 20.9453H18.8633C19.1172 20.9453 19.3125 20.7988 19.4492 20.5059V20.4766H19.4199C18.9902 20.6133 18.7754 20.75 18.7754 20.8867ZM10.4551 20.6523H10.2793V20.6816C10.2988 20.7598 10.3672 20.7988 10.4844 20.7988V20.7109L10.4551 20.6523ZM17.9844 21.2383V21.3555H18.1016C18.2383 21.3555 18.3652 21.2676 18.4824 21.0918V21.0039C18.1504 21.0625 17.9844 21.1406 17.9844 21.2383ZM9.66406 21.7363H9.45898V21.8828H9.66406H9.81055H9.98633V21.7363H9.81055H9.66406ZM12.418 22.0293L12.3594 22.0879H12.5059L12.418 22.0293ZM8.3457 22.1465L8.25781 22.1758C8.29688 22.2734 8.375 22.3223 8.49219 22.3223L8.60938 22.1758L8.55078 22.1465H8.3457Z" fill="#4A18D7"/>
</svg>
