<svg width="73" height="24" viewBox="0 0 73 24" fill="none" xmlns="http://www.w3.org/2000/svg">
<path d="M1.68359 3.1875L1.96484 3.28125C2.76172 3.21875 4.59766 3.1875 7.47266 3.1875L8.59766 3.53906C9.31641 3.63281 9.80078 3.78125 10.0508 3.98438C11.207 5 11.7852 5.875 11.7852 6.60938C11.707 7.01562 11.543 7.65625 11.293 8.53125C10.7461 9.09375 10.2305 9.55469 9.74609 9.91406C9.74609 10.0547 9.89453 10.1797 10.1914 10.2891C10.3477 10.3984 10.5977 10.5234 10.9414 10.6641C11.1289 10.8516 11.4336 11.2266 11.8555 11.7891C12.418 12.3516 12.7461 13.0312 12.8398 13.8281L12.8633 14.0859C12.8633 14.2422 12.8086 14.3203 12.6992 14.3203V14.3438C12.6992 14.4375 12.7852 14.6406 12.957 14.9531V15.1641C12.957 15.3047 12.8477 15.6172 12.6289 16.1016C12.6289 16.3047 12.457 16.4375 12.1133 16.5C11.9102 16.5 11.707 16.6406 11.5039 16.9219V16.9688C11.5039 17 11.5664 17.0312 11.6914 17.0625V17.0859C11.6602 17.1641 11.6055 17.2031 11.5273 17.2031C11.5273 17.1094 11.5039 17.0625 11.457 17.0625C11.4258 17.0625 11.3945 17.125 11.3633 17.25C11.082 17.25 10.7461 17.375 10.3555 17.625V17.6719H10.4258C10.5195 17.6719 10.7461 17.5938 11.1055 17.4375V17.4609C10.8711 17.6797 10.3945 17.8672 9.67578 18.0234C8.67578 18.4766 6.66016 18.7031 3.62891 18.7031V18.6562L3.60547 18.5391C2.88672 18.5391 2.23047 18.6797 1.63672 18.9609C1.38672 18.9609 1.26172 18.5312 1.26172 17.6719C1.26172 17.5469 1.73047 17.3516 2.66797 17.0859C3.35547 17.0078 3.69922 16.9375 3.69922 16.875V16.8516C3.60547 16.8516 3.49609 16.1953 3.37109 14.8828C3.33984 14.3672 3.29297 14.0156 3.23047 13.8281C3.23047 13.6562 3.29297 13.4297 3.41797 13.1484C3.38672 12.0234 3.30078 11.4609 3.16016 11.4609C3.06641 11.4609 2.98828 10.1875 2.92578 7.64062V5.25C2.58203 5.10938 2.35547 5.03906 2.24609 5.03906H2.08203C1.97266 5.03906 1.90234 5.07812 1.87109 5.15625V5.20312L1.89453 5.39062C1.89453 5.42188 1.78516 5.67969 1.56641 6.16406V6.21094L1.19141 6.23438C1.14453 6.15625 0.996094 6.10938 0.746094 6.09375C0.605469 6.09375 0.511719 5.63281 0.464844 4.71094C0.417969 4.44531 0.332031 4.14062 0.207031 3.79688C0.441406 3.46875 0.699219 3.30469 0.980469 3.30469C0.980469 3.27344 1.21484 3.23438 1.68359 3.1875ZM3.86328 3.96094L3.91016 3.98438H4.56641C5.16016 3.98438 5.45703 3.92188 5.45703 3.79688V3.77344C5.45703 3.75781 5.41016 3.73438 5.31641 3.70312C4.39453 3.75 3.91016 3.83594 3.86328 3.96094ZM2.80859 3.89062L3.41797 4.07812H3.46484C3.55859 4.07812 3.63672 4.03125 3.69922 3.9375C3.69922 3.85937 3.51953 3.80469 3.16016 3.77344C2.92578 3.78906 2.80859 3.82813 2.80859 3.89062ZM6.08984 3.77344H5.97266V3.84375H6.08984V3.77344ZM9.88672 4.33594L9.81641 4.40625V4.42969L9.91016 4.54688H10.0508L10.0977 4.47656V4.45312L10.0039 4.33594H9.88672ZM4.28516 4.66406V4.71094L4.35547 4.80469H4.44922C5.24609 4.72656 5.67578 4.63281 5.73828 4.52344L5.69141 4.47656C4.75391 4.52344 4.28516 4.58594 4.28516 4.66406ZM4.44922 5.29688C4.57422 8.65625 4.68359 10.3359 4.77734 10.3359L4.84766 10.3828H4.87109L7.00391 9.89062C7.94141 9.76562 8.41016 9.64062 8.41016 9.51562C9.53516 8.64062 10.0977 8.03906 10.0977 7.71094V7.57031C9.92578 6.67969 9.83984 6.17969 9.83984 6.07031C9.83984 5.66406 9.56641 5.28125 9.01953 4.92188C8.81641 4.875 8.43359 4.84375 7.87109 4.82812C5.58984 4.95313 4.44922 5.10938 4.44922 5.29688ZM9.88672 5.03906H9.67578V5.10938C9.95703 5.35937 10.0977 5.71094 10.0977 6.16406C10.2227 6.61719 10.3086 6.88281 10.3555 6.96094H10.4023V6.75C10.2617 5.60938 10.0898 5.03906 9.88672 5.03906ZM11.1758 5.55469H11.1055V5.625L11.2227 5.71875H11.293V5.64844L11.1758 5.55469ZM10.7539 6.09375L10.6836 6.16406L10.707 6.25781H10.7773L10.918 6.14062L10.8477 6.09375H10.7539ZM10.918 6.70312L10.8477 6.65625L10.8242 6.67969V6.79688L10.8711 6.84375L10.918 6.82031V6.70312ZM3.23047 7.28906L3.16016 7.35938V7.57031L3.23047 7.61719H3.25391L3.32422 7.57031V7.47656C3.32422 7.36719 3.29297 7.30469 3.23047 7.28906ZM9.51172 9.42188L9.41797 9.51562H9.48828L9.53516 9.46875V9.42188H9.51172ZM6.11328 10.4531H6.18359V10.4766C7.15234 10.3984 7.63672 10.3125 7.63672 10.2188V10.1953H7.51953C6.66016 10.2109 6.19141 10.2969 6.11328 10.4531ZM8.59766 10.4297V10.4766H8.62109C8.94922 10.4766 9.37109 10.5547 9.88672 10.7109C9.93359 10.7109 9.95703 10.6797 9.95703 10.6172C9.86328 10.3984 9.65234 10.2891 9.32422 10.2891H9.06641C8.75391 10.2891 8.59766 10.3359 8.59766 10.4297ZM10.2617 10.7812V10.8047C10.4492 11.0234 10.6211 11.1328 10.7773 11.1328V11.1094C10.7773 10.9531 10.6055 10.8438 10.2617 10.7812ZM6.20703 11.2969C6.20703 11.3281 6.23828 11.3438 6.30078 11.3438C6.72266 11.3281 7.16797 11.2656 7.63672 11.1562L8.45703 11.1328H8.73828L8.90234 11.1094V11.0625C8.90234 10.9844 8.66797 10.9453 8.19922 10.9453H7.77734C6.93359 10.9453 6.41016 11.0625 6.20703 11.2969ZM5.97266 11.2031H5.87891V11.25H5.97266V11.2031ZM9.53516 11.2031H9.48828V11.2969H9.53516V11.2031ZM4.73047 11.5312V11.5781H4.80078C5.19141 11.5312 5.38672 11.4688 5.38672 11.3906H5.31641C5.17578 11.3906 4.98047 11.4375 4.73047 11.5312ZM4.68359 11.8828L4.61328 12L4.58984 12.5156C4.65234 15.1875 4.76953 16.7031 4.94141 17.0625C5.01953 17.3281 5.20703 17.4609 5.50391 17.4609L7.58984 17.5547C8.43359 17.5078 9.46484 17.1484 10.6836 16.4766C11.2773 15.8828 11.5742 15.4766 11.5742 15.2578C11.6367 15.2578 11.6758 15.1797 11.6914 15.0234V14.9531C11.6914 14.25 11.4805 13.5 11.0586 12.7031C10.6211 12.2344 10.2695 12 10.0039 12H9.81641C9.72266 11.9688 9.67578 11.9453 9.67578 11.9297C9.67578 11.8672 9.73047 11.8359 9.83984 11.8359V11.7891C9.73047 11.6328 9.55859 11.5547 9.32422 11.5547H9.30078V11.5781L9.41797 11.7188V11.7656H9.37109C8.65234 11.5312 8.07422 11.4141 7.63672 11.4141H7.51953C6.44141 11.4141 5.49609 11.5703 4.68359 11.8828ZM10.918 11.6016L10.8477 11.6484C10.9102 11.8828 11.1055 12.125 11.4336 12.375H11.5039V12.2812C11.457 12.0625 11.2695 11.8359 10.9414 11.6016H10.918ZM10.6367 17.1094L10.6836 17.1562H10.707C10.9102 17.1562 11.0664 17.0391 11.1758 16.8047V16.7812H11.1523C10.8086 16.8906 10.6367 17 10.6367 17.1094ZM3.98047 16.9219H3.83984V16.9453C3.85547 17.0078 3.91016 17.0391 4.00391 17.0391V16.9688L3.98047 16.9219ZM10.0039 17.3906V17.4844H10.0977C10.207 17.4844 10.3086 17.4141 10.4023 17.2734V17.2031C10.1367 17.25 10.0039 17.3125 10.0039 17.3906ZM3.34766 17.7891H3.18359V17.9062H3.34766H3.46484H3.60547V17.7891H3.46484H3.34766ZM5.55078 18.0234L5.50391 18.0703H5.62109L5.55078 18.0234ZM2.29297 18.1172L2.22266 18.1406C2.25391 18.2188 2.31641 18.2578 2.41016 18.2578L2.50391 18.1406L2.45703 18.1172H2.29297ZM14.3633 0.492188L14.7148 0.398438L15.6992 0.65625L17.2227 0.585938C17.6133 0.585938 17.8086 0.703125 17.8086 0.9375C17.7148 1.53125 17.668 2.32031 17.668 3.30469V6.98438L17.6445 10.5234L17.668 11.4609L17.5508 15.9141C18.082 16.0547 18.8867 16.1562 19.9648 16.2188L19.9883 16.2422V16.5703C19.9883 16.6484 20.0742 16.7734 20.2461 16.9453C20.0742 17.3203 19.8789 17.875 19.6602 18.6094L19.4492 18.7734H19.3789C19.2852 18.6328 19.0898 18.5625 18.793 18.5625L14.9492 18.0469C13.793 18.0469 13.2148 17.9766 13.2148 17.8359C13.4023 17.4609 13.543 16.8516 13.6367 16.0078H13.6602V15.9844L13.8945 16.0078H14.1289C14.207 15.9609 14.4336 15.8984 14.8086 15.8203C14.9648 15.8984 15.082 15.9375 15.1602 15.9375H15.4414C15.5977 15.9375 15.6758 15.7812 15.6758 15.4688C15.707 15.0938 15.7852 13.3828 15.9102 10.3359C15.8008 9.39844 15.707 6.82031 15.6289 2.60156C15.5664 2.49219 15.4883 2.4375 15.3945 2.4375L14.3398 2.50781C14.1523 2.49219 14.0586 2.42969 14.0586 2.32031C14.1211 1.10156 14.2227 0.492188 14.3633 0.492188ZM14.5977 0.9375L14.457 0.984375V1.03125C14.457 1.17188 14.5352 1.24219 14.6914 1.24219H14.7617C14.9336 1.24219 15.1055 1.15625 15.2773 0.984375V0.9375H14.5977ZM15.793 0.9375L15.7461 1.00781L15.9336 1.05469H16.168L16.2617 0.984375V0.9375H15.793ZM16.543 1.85156V1.875L16.6133 1.94531H16.707C16.8477 1.85156 17.0195 1.75781 17.2227 1.66406C17.3008 1.53906 17.3398 1.44531 17.3398 1.38281L17.293 1.33594H17.2227C17.082 1.33594 16.9414 1.42187 16.8008 1.59375C16.6289 1.64062 16.543 1.72656 16.543 1.85156ZM14.4805 1.47656L14.3633 1.59375V1.75781L14.457 1.85156H14.9258H15.0898V1.75781L14.668 1.57031L14.5273 1.47656H14.4805ZM16.3086 3.375L16.2617 3.44531V3.53906L16.3086 3.60938H16.3555L16.3789 3.53906V3.44531L16.3555 3.375H16.3086ZM16.2617 4.6875L16.1914 4.75781V4.80469H16.3086V4.6875H16.2617ZM17.293 6.30469H17.2227V6.32812L17.3164 6.44531H17.3398V6.375L17.293 6.30469ZM17.3398 6.72656L17.2461 6.65625L17.2227 7.125V7.40625H17.2461C17.3086 7.40625 17.3398 7.29688 17.3398 7.07812V6.72656ZM16.1211 7.26562V7.35938L16.168 7.40625L16.2148 7.35938V7.24219L16.1914 7.19531C16.1914 7.17969 16.2539 7.13281 16.3789 7.05469V6.98438H16.2852C16.1758 7.04688 16.1211 7.14062 16.1211 7.26562ZM17.3164 7.57031H17.2227V7.75781H17.2461L17.3164 7.71094V7.57031ZM16.4492 10.2422V10.3125H16.4961C16.5742 10.3125 16.6133 9.99219 16.6133 9.35156C16.582 9.35156 16.5273 9.64844 16.4492 10.2422ZM16.9883 11.3438L16.9414 11.3906L16.8945 12.8672V14.8359L16.9414 15.75L16.9648 15.7734H17.1289C17.1914 15.7734 17.2227 15.7031 17.2227 15.5625C17.207 12.75 17.1289 11.3438 16.9883 11.3438ZM16.0273 14.8359V14.9297C16.0273 15.0391 16.0586 15.0938 16.1211 15.0938L16.2148 14.9531V14.7891C16.1836 14.6016 16.1523 14.5078 16.1211 14.5078C16.0586 14.5078 16.0273 14.6172 16.0273 14.8359ZM14.6211 16.3594L14.5742 16.4297C14.5742 16.5547 14.6289 16.6172 14.7383 16.6172H14.7617V16.4297L14.6914 16.3594H14.6211ZM19.2383 16.3594L19.0977 16.3828V16.4297C19.1133 16.5234 19.2461 16.5703 19.4961 16.5703L19.6133 16.4766V16.3828L19.4727 16.3594H19.2383ZM13.9414 16.4297L13.8945 16.5V16.5703L13.9883 16.6172L14.0352 16.5234L14.0117 16.4297H13.9414ZM15.0898 16.6875V16.7109L15.207 16.7344H15.3477L15.4414 16.6875V16.6172H15.2773H15.2539C15.1445 16.6172 15.0898 16.6406 15.0898 16.6875ZM19.332 17.0625L17.9961 17.0156V17.0391C17.9961 17.1328 18.2617 17.1875 18.793 17.2031H19.4023L19.5664 17.1562V17.0859L19.332 17.0625ZM14.9258 17.0859L14.8555 17.2031L14.9023 17.2734H15.2539C15.5039 17.2734 15.6289 17.25 15.6289 17.2031V17.1562C15.457 17.1094 15.2383 17.0859 14.9727 17.0859H14.9258ZM18.582 17.6719L18.6758 17.6953H19.1445C19.2852 17.6953 19.3633 17.6719 19.3789 17.625V17.5547L19.2383 17.5312H18.8867C18.6836 17.5469 18.582 17.5938 18.582 17.6719ZM13.6602 17.5547L13.5898 17.6719L13.6602 17.6953H13.7773L13.8477 17.6719L13.7539 17.5547H13.6602ZM19.2617 18.1172H19.1211V18.2109L19.2617 18.2578H19.332L19.4727 18.2109V18.1172H19.332H19.2617ZM26.9961 6.91406L27.6523 7.10156H27.8633C28.7539 7.53906 29.582 8.0625 30.3477 8.67188C31.1445 9.35938 31.543 9.875 31.543 10.2188H31.4961C31.3711 10 31.2461 9.89062 31.1211 9.89062H31.0977C31.0508 9.89062 31.0273 9.92188 31.0273 9.98438C31.0898 10.1562 31.2305 10.4531 31.4492 10.875H31.4961C31.5273 10.875 31.5664 10.7969 31.6133 10.6406H31.6367C31.6836 10.6562 31.7383 10.8828 31.8008 11.3203L32.0117 11.7891L31.9648 12.0938L32.0352 12.9375C31.9258 13.3281 31.8242 13.8438 31.7305 14.4844C31.668 14.7812 30.9414 15.8906 29.5508 17.8125C28.9258 18.4062 28.3164 18.7031 27.7227 18.7031C27.1758 18.7656 26.5586 18.7969 25.8711 18.7969H25.4258C25.1602 18.7969 24.4648 18.5703 23.3398 18.1172C21.918 16.8516 21.207 15.8828 21.207 15.2109C21.0039 14.7891 20.832 14.3984 20.6914 14.0391C20.6914 13.8359 20.9023 13.1641 21.3242 12.0234C21.3242 11.3047 21.4961 10.8047 21.8398 10.5234C22.5742 8.94531 23.5039 7.92188 24.6289 7.45312C25.6133 7.09375 26.4023 6.91406 26.9961 6.91406ZM22.7773 14.2734V14.4141C22.9961 14.8359 23.2383 15.2891 23.5039 15.7734C23.5039 15.9297 23.8008 16.1484 24.3945 16.4297C24.6758 16.7578 25.1992 17.0156 25.9648 17.2031L26.3867 17.25C27.0742 17.1094 27.5898 16.9609 27.9336 16.8047L28.7773 16.1016C29.6523 15.1641 30.0742 14.375 30.043 13.7344V13.5234C29.9492 13.2734 29.9023 12.8672 29.9023 12.3047C29.9023 11.8672 29.9336 11.5234 29.9961 11.2734C29.9961 11.1641 29.6914 10.8906 29.082 10.4531C28.6445 9.82812 28.1914 9.44531 27.7227 9.30469H27.4414C25.6133 9.38281 24.6992 9.53125 24.6992 9.75C24.293 10.1562 24.0117 10.5547 23.8555 10.9453C23.3555 11.4766 23.1055 11.8281 23.1055 12C22.9648 12.6406 22.8555 13.3984 22.7773 14.2734ZM23.5039 8.60156L23.4336 8.71875V8.8125C23.5273 8.8125 24.0039 8.48438 24.8633 7.82812L25.0508 7.75781L25.1914 7.78125C26.2383 7.67188 26.7617 7.57031 26.7617 7.47656V7.45312L26.3867 7.38281C25.3242 7.38281 24.3633 7.78906 23.5039 8.60156ZM25.332 9.09375V9.11719L25.3789 9.1875H25.707L27.3711 8.8125V8.76562L26.9258 8.67188C25.8633 8.79688 25.332 8.9375 25.332 9.09375ZM21.6523 14.9297L21.5586 15V15.1641C21.5898 15.6953 21.7383 15.9922 22.0039 16.0547L22.0273 16.0312V16.0078C21.918 15.2891 21.793 14.9297 21.6523 14.9297ZM25.2852 8.29688V8.41406C26.5039 8.27344 27.1133 8.17969 27.1133 8.13281L26.9258 8.0625H26.9023C26.1523 8.0625 25.6133 8.14062 25.2852 8.29688ZM27.2773 7.40625C27.3555 7.625 27.5273 7.73438 27.793 7.73438L28.0273 7.75781L28.0742 7.73438V7.61719C28.0742 7.44531 27.9102 7.34375 27.582 7.3125C27.3789 7.32812 27.2773 7.35938 27.2773 7.40625ZM23.0117 17.2969H22.8477V17.3906C23.0508 17.5938 23.418 17.6953 23.9492 17.6953H24.207C24.1289 17.5859 23.7305 17.4531 23.0117 17.2969ZM26.8789 18.1641V18.2109C26.8789 18.2578 26.9961 18.2969 27.2305 18.3281C27.4961 18.3281 27.6289 18.2891 27.6289 18.2109V18.1641C27.6133 18.1016 27.5586 18.0391 27.4648 17.9766H27.2539C27.082 17.9766 26.957 18.0391 26.8789 18.1641ZM31.332 13.7109C31.3477 14.1797 31.3867 14.4297 31.4492 14.4609H31.4961C31.4961 14.2891 31.5664 14.1016 31.707 13.8984V13.8281L31.4492 13.4766H31.4023C31.3711 13.4766 31.3477 13.5547 31.332 13.7109ZM29.7852 9.67969H29.6914C29.7852 9.88281 30.0117 10.0547 30.3711 10.1953H30.4648L30.5352 10.125V10.1016C30.2695 9.82031 30.0195 9.67969 29.7852 9.67969ZM29.2695 8.95312V9C29.3164 9.1875 29.5352 9.38281 29.9258 9.58594H29.9961L30.043 9.51562V9.49219C29.9648 9.38281 29.707 9.20312 29.2695 8.95312ZM27.7227 8.17969L27.6758 8.20312C27.9727 8.4375 28.207 8.55469 28.3789 8.55469L28.4023 8.50781V8.48438C28.1523 8.28125 27.9258 8.17969 27.7227 8.17969ZM24.6055 17.6016V17.6719C24.6055 17.7656 24.8242 17.8125 25.2617 17.8125L25.2852 17.7891V17.7422C25.082 17.6484 24.8555 17.6016 24.6055 17.6016ZM28.918 7.92188L28.8477 7.99219C29.0195 8.21094 29.1914 8.32031 29.3633 8.32031C29.3633 8.14844 29.2305 8.01562 28.9648 7.92188H28.918ZM23.1992 10.3359V10.5H23.2695C23.4727 10.3125 23.5742 10.1641 23.5742 10.0547V10.0312H23.457C23.3633 10.0938 23.2773 10.1953 23.1992 10.3359ZM28.4961 9.25781C28.5898 9.41406 28.6992 9.49219 28.8242 9.49219L28.8477 9.44531V9.39844C28.8477 9.25781 28.7852 9.1875 28.6602 9.1875C28.5508 9.20312 28.4961 9.22656 28.4961 9.25781ZM30.7695 15.4219V15.4453C30.8945 15.4453 31.0039 15.3203 31.0977 15.0703V15.0234H31.0273C30.9336 15.0234 30.8477 15.1562 30.7695 15.4219ZM23.6914 9.11719C23.832 9.11719 23.9648 9.02344 24.0898 8.83594V8.76562C23.8242 8.84375 23.6914 8.96094 23.6914 9.11719ZM31.1445 15H31.2617L31.3555 15.0703C31.3711 14.8203 31.332 14.7109 31.2383 14.7422H31.1914L31.168 14.5781L31.1445 15ZM28.1445 18.3281H28.168C28.4492 18.2344 28.5898 18.1562 28.5898 18.0938L28.543 18.0469C28.3242 18.125 28.1914 18.2188 28.1445 18.3281ZM22.5195 16.4766L22.4258 16.5234V16.5703L22.6133 16.7578H22.707C22.707 16.6484 22.6445 16.5547 22.5195 16.4766ZM24.1133 17.9297V17.9531H24.418L24.4648 17.9062L24.418 17.8359H24.3711C24.2148 17.8359 24.1289 17.8672 24.1133 17.9297ZM31.707 12.0469L31.6367 12.1172V12.2109L31.707 12.3047L31.8008 12.2109V12.1172L31.7305 12.0469H31.707ZM21.793 11.2969C21.8711 11.2969 21.9414 11.2422 22.0039 11.1328V11.0859C21.8633 11.0859 21.793 11.1562 21.793 11.2969ZM21.0664 13.8281L21.0195 13.8984C21.0352 14.0391 21.0586 14.1094 21.0898 14.1094L21.1367 14.0859V13.9688L21.0898 13.8281H21.0664ZM27.3242 8.41406V8.4375L27.5586 8.25L27.5117 8.22656C27.3555 8.32031 27.293 8.38281 27.3242 8.41406ZM22.2617 10.5H22.2852C22.3477 10.4844 22.3789 10.4219 22.3789 10.3125H22.332C22.2852 10.3438 22.2617 10.4062 22.2617 10.5ZM22.4023 13.3125L22.3086 13.4062V13.4531H22.3789L22.4258 13.3828V13.3125H22.4023ZM23.7852 9.77344H23.6914V9.86719H23.7383L23.7852 9.82031V9.77344ZM37.5195 5.74219H38.293C38.668 5.74219 39.2773 5.90625 40.1211 6.23438C40.4336 6.23438 40.9258 6.42969 41.5977 6.82031H41.7148C41.8867 6.82031 42.2617 6.50781 42.8398 5.88281C42.9648 5.88281 43.1992 6.10156 43.543 6.53906C43.6992 6.60156 43.8789 6.75 44.082 6.98438V7.05469C43.207 8.02344 42.7695 8.5625 42.7695 8.67188C42.3477 10.0938 42.0664 10.8828 41.9258 11.0391C41.6289 11.3516 41.207 11.625 40.6602 11.8594C39.9727 12.5469 39.3555 12.8906 38.8086 12.8906L38.1055 12.9141L36.582 12.7734H36.2773C36.1523 12.7734 35.9883 13.2891 35.7852 14.3203L35.9727 14.3672H36.043C36.293 14.3672 36.5664 14.2734 36.8633 14.0859L37.4023 14.0391H38.3398C39.8398 14.0391 41.0742 14.1797 42.043 14.4609C42.1836 14.5547 42.5273 14.7266 43.0742 14.9766L43.8711 15.5625C44.4961 16.0938 44.8867 16.5703 45.043 16.9922C45.6055 18.0859 45.8867 19.0156 45.8867 19.7812C45.8867 20.3594 45.4336 21.0781 44.5273 21.9375L43.0977 22.9688C42.3477 23.4375 41.457 23.6719 40.4258 23.6719L39.7695 23.7656C36.9883 23.7656 35.1055 23.2031 34.1211 22.0781C33.4023 21.6406 33.043 21.0703 33.043 20.3672C32.7773 19.8672 32.6445 19.2109 32.6445 18.3984L32.5508 17.8828L32.6445 17.5781H32.7148C32.793 17.9375 32.8555 18.1172 32.9023 18.1172H32.9727C33.1914 17.1328 33.3633 16.4766 33.4883 16.1484V16.1016H33.4648C33.0117 16.8359 32.7852 17.2578 32.7852 17.3672H32.7383C32.6758 17.3672 32.6445 17.2812 32.6445 17.1094C32.6602 16.7969 32.9414 16.2578 33.4883 15.4922C34.0977 14.9141 34.4023 14.5859 34.4023 14.5078C34.5586 13.2109 34.6758 12.4062 34.7539 12.0938C34.3477 11.3125 34.1445 10.6719 34.1445 10.1719L34.1211 9.77344C34.1211 9.50781 34.2227 9.02344 34.4258 8.32031C34.5977 8.14844 34.9258 7.72656 35.4102 7.05469C36.2383 6.17969 36.9414 5.74219 37.5195 5.74219ZM36.6523 6.32812V6.35156C37.1992 6.21094 37.4727 6.09375 37.4727 6V5.97656H37.4023C37.1836 5.97656 36.9336 6.09375 36.6523 6.32812ZM42.9102 6.42188L42.8398 6.49219V6.51562C42.8711 6.5625 42.9258 6.58594 43.0039 6.58594H43.1445V6.53906L42.9805 6.42188H42.9102ZM37.2383 6.82031V6.91406H37.2852L37.9883 6.65625V6.53906H37.7773C37.418 6.61719 37.2383 6.71094 37.2383 6.82031ZM35.832 9.23438V9.35156C36.082 10.5391 36.2617 11.1328 36.3711 11.1328C36.7305 11.4766 37.043 11.6484 37.3086 11.6484C38.4961 11.6484 39.3477 11.3828 39.8633 10.8516C40.2539 10.4922 40.5352 10.1172 40.707 9.72656C40.832 9.50781 40.8945 9.34375 40.8945 9.23438V8.85938C40.8945 8.60938 40.707 8.23438 40.332 7.73438C39.4883 7.35938 38.9023 7.17188 38.5742 7.17188C37.8398 7.17188 37.1289 7.49219 36.4414 8.13281C36.0352 8.63281 35.832 9 35.832 9.23438ZM42.7227 7.82812V7.96875H42.7695C43.0977 7.6875 43.3242 7.44531 43.4492 7.24219V7.17188H43.4258C43.2539 7.17188 43.0195 7.39062 42.7227 7.82812ZM36.0898 7.78125L36.1836 7.80469C36.2773 7.80469 36.4023 7.70312 36.5586 7.5V7.40625H36.418C36.1992 7.53125 36.0898 7.65625 36.0898 7.78125ZM41.2461 7.57031H41.1289V7.59375C41.2383 7.89062 41.3711 8.03906 41.5273 8.03906C41.5742 8.03906 41.5977 8.01562 41.5977 7.96875C41.5977 7.85938 41.4805 7.72656 41.2461 7.57031ZM34.6602 8.83594H34.7305C34.7773 8.80469 34.9023 8.64844 35.1055 8.36719L35.0352 8.32031C34.9414 8.32031 34.8164 8.49219 34.6602 8.83594ZM34.3555 9.53906C34.3555 9.88281 34.4336 10.1406 34.5898 10.3125H34.6836C34.7305 10.3125 34.7539 10.2891 34.7539 10.2422C34.6914 9.58594 34.6133 9.25781 34.5195 9.25781C34.4414 9.25781 34.3867 9.35156 34.3555 9.53906ZM40.4961 10.8281V10.8516H40.6367C40.918 10.8516 41.0977 10.5312 41.1758 9.89062V9.77344L41.1523 9.72656H41.082C40.6914 10.3516 40.4961 10.7188 40.4961 10.8281ZM35.5508 9.82031L35.5039 9.89062C35.5039 10.1562 35.5898 10.3984 35.7617 10.6172H35.7852V10.5234C35.7539 10.1172 35.6758 9.88281 35.5508 9.82031ZM41.7148 10.7344H41.6445L41.5742 10.8516V10.875H41.6445C41.6602 10.875 41.6836 10.8281 41.7148 10.7344ZM40.0273 11.3672H40.0977C40.2852 11.2891 40.4336 11.1797 40.543 11.0391L40.4727 10.9453C40.207 11.1328 40.0586 11.2734 40.0273 11.3672ZM39.043 11.6484V11.7188L39.1836 11.8125H39.2773C39.3555 11.8125 39.5117 11.6953 39.7461 11.4609V11.4141H39.5352C39.3477 11.4141 39.1836 11.4922 39.043 11.6484ZM34.7773 11.5547H34.6836V11.625C34.8398 11.875 35.0742 12.0469 35.3867 12.1406V12.0938C35.2461 11.7344 35.043 11.5547 34.7773 11.5547ZM39.957 11.5547L39.8633 11.6484V11.7422H39.9102L40.0977 11.5781V11.5547H39.957ZM35.7383 11.7188L35.668 11.7891C35.7305 11.9453 35.832 12.0234 35.9727 12.0234L36.0898 11.8828C36.0898 11.8203 35.9727 11.7656 35.7383 11.7188ZM38.5508 11.8125L38.457 11.9062C38.457 11.9375 38.5898 11.9688 38.8555 12L39.043 11.9766C39.043 11.9141 38.9414 11.8594 38.7383 11.8125H38.5508ZM36.2539 12L36.2305 12.0234V12.2109L36.3242 12.3047H36.7227V12.2109C36.457 12.0703 36.3008 12 36.2539 12ZM37.0508 12.2578L36.957 12.3281C36.957 12.4688 37.2148 12.5391 37.7305 12.5391H38.4102C38.5039 12.5391 38.5586 12.5078 38.5742 12.4453C38.2461 12.3203 37.8164 12.2578 37.2852 12.2578H37.0508ZM35.3398 12.5391L35.2227 12.6328V12.8203C35.2227 12.9453 35.2852 13.0234 35.4102 13.0547L35.5039 12.9844V12.6094L35.4102 12.5391H35.3398ZM38.9727 14.4141L38.457 14.5078V14.5312C38.457 14.6719 39.2617 14.7656 40.8711 14.8125L41.3633 14.9766H41.4102C41.457 14.9766 41.5195 14.9531 41.5977 14.9062L42.2773 14.9297V14.8594C42.1992 14.7344 42.0195 14.6719 41.7383 14.6719H41.5039C41.4258 14.6719 41.3555 14.6953 41.293 14.7422L40.7305 14.5078C40.4023 14.4453 39.8945 14.4141 39.207 14.4141H38.9727ZM37.1914 14.5078H37.0977H37.1914ZM35.9023 15.1641C35.9023 15.1953 36.1523 15.2266 36.6523 15.2578C36.8555 15.2422 36.957 15.2109 36.957 15.1641C36.8789 15.0391 36.7852 14.9531 36.6758 14.9062H36.418C36.0742 14.9531 35.9023 15.0391 35.9023 15.1641ZM39.9102 15.2578H39.8867V15.2812C39.8867 15.3438 40.0742 15.3828 40.4492 15.3984L40.4727 15.375V15.3281L39.9102 15.2578ZM42.1602 15.2578L42.0898 15.3516L42.1602 15.3984L42.2539 15.375V15.2578H42.1602ZM34.8711 15.5625L34.9883 15.6328H35.1523L35.2461 15.5156V15.375L35.1758 15.2812C35.0195 15.2812 34.918 15.375 34.8711 15.5625ZM33.9102 16.0078V16.0312L33.9805 16.1016C34.3555 16.0078 34.543 15.8828 34.543 15.7266V15.5625L34.4961 15.4922C34.293 15.5703 34.0977 15.7422 33.9102 16.0078ZM42.4883 15.5859H42.4648C42.4648 15.6953 42.6445 15.7891 43.0039 15.8672L43.0977 15.8438V15.7969C42.9883 15.6562 42.8164 15.5859 42.582 15.5859H42.5117H42.4883ZM36.5586 15.6328L36.4414 15.7266L36.5117 15.7969H36.6758V15.6797L36.6055 15.6328H36.5586ZM39.8633 15.6797L39.7461 15.7969C39.7461 15.8594 40.1367 15.9141 40.918 15.9609C41.5586 16.1484 42.1133 16.4062 42.582 16.7344L42.9102 16.7578L43.0039 16.6641V16.6406C42.8945 16.4219 42.3945 16.1797 41.5039 15.9141C40.6758 15.7578 40.1289 15.6797 39.8633 15.6797ZM38.3398 16.0078V16.0781L37.9648 16.1484L37.4727 16.0781L35.7383 16.1016C35.0195 16.7578 34.6602 17.2188 34.6602 17.4844L34.5195 17.6484V17.6953C34.6289 19.2578 34.7852 20.2266 34.9883 20.6016C35.0039 20.6797 35.2852 20.9141 35.832 21.3047C35.832 21.4141 36.3008 21.6016 37.2383 21.8672C38.6133 22.0703 39.7539 22.1719 40.6602 22.1719C41.832 21.9531 42.6289 21.625 43.0508 21.1875C43.8164 20.4062 44.1992 19.7656 44.1992 19.2656V19.1484C44.1992 18.8828 43.8945 18.3594 43.2852 17.5781C43.207 17.3594 42.9727 17.1484 42.582 16.9453C41.8945 16.4922 41.1992 16.2109 40.4961 16.1016L39.043 16.0781V15.9375V15.9141H38.7617C38.543 15.9141 38.4023 15.9453 38.3398 16.0078ZM43.3789 16.0312H43.2148V16.0781L44.1289 16.8984H44.1758V16.8516C43.957 16.4141 43.6914 16.1406 43.3789 16.0312ZM34.6602 16.5234V16.5938H34.7305L35.0117 16.5V16.4062H34.9648C34.7617 16.4219 34.6602 16.4609 34.6602 16.5234ZM34.332 16.7578V16.8516H34.4023L34.543 16.6875V16.6172C34.4492 16.6172 34.3789 16.6641 34.332 16.7578ZM33.6992 17.3438L33.7227 17.4609H33.7695C33.8477 17.4609 33.9414 17.2266 34.0508 16.7578H34.0039C33.8008 16.9141 33.6992 17.1094 33.6992 17.3438ZM43.1914 16.8516H43.0977C43.0977 16.9297 43.3242 17.2422 43.7773 17.7891V17.8125H43.8242V17.7188C43.6211 17.1406 43.4102 16.8516 43.1914 16.8516ZM45.3008 18.5859H45.207V18.6328L45.2773 18.7266L45.3008 18.6797V18.5859ZM44.7617 18.75H44.6445V18.7969L44.7148 18.8906H44.7617L44.8555 18.7969L44.7617 18.75ZM32.9023 18.9609L32.8555 18.9844V19.1484L32.9492 19.2188H32.9727V18.9609H32.9023ZM45.1367 19.4062V19.4531C45.1367 19.5938 45.168 19.6719 45.2305 19.6875H45.2773C45.4023 19.4688 45.4648 19.2344 45.4648 18.9844L45.4414 18.9609H45.3711C45.2148 19.0703 45.1367 19.2188 45.1367 19.4062ZM34.2383 19.0312L34.1914 19.1016L34.1445 19.5703C34.1602 19.8984 34.207 20.0625 34.2852 20.0625H34.332C34.3789 20.0312 34.4023 19.9766 34.4023 19.8984V19.5938C34.4023 19.2188 34.3633 19.0312 34.2852 19.0312H34.2383ZM33.0195 19.3828H32.9727V19.4531C32.9883 19.5625 33.0195 19.6172 33.0664 19.6172L33.1367 19.5703V19.5L33.0195 19.3828ZM43.6602 21V21.0469L43.7305 21.0938C44.1211 20.9844 44.3164 20.7812 44.3164 20.4844V20.3203H44.2461C43.8555 20.6172 43.6602 20.8438 43.6602 21ZM34.0039 20.8828L33.9102 21C33.957 21.1094 34.0039 21.1641 34.0508 21.1641L34.1445 21.0469C34.1445 20.9844 34.0977 20.9297 34.0039 20.8828ZM34.9648 21.3281H34.918V21.3984L35.0117 21.4922H35.1523V21.4219C35.1367 21.3594 35.0742 21.3281 34.9648 21.3281ZM34.6367 21.4922L34.5664 21.5859V21.6328H34.7773V21.4922H34.6367ZM40.5664 22.5938C38.6445 22.4688 37.5586 22.3594 37.3086 22.2656L36.6758 22.2188V22.2656C36.8789 22.4219 37.1445 22.5234 37.4727 22.5703L38.1758 22.5469L38.3398 22.6641L38.3633 22.6406H38.4102C38.832 22.7188 39.2773 22.7578 39.7461 22.7578H40.2617C40.9492 22.7578 41.4258 22.6719 41.6914 22.5C42.3477 22.2656 42.6758 22.1328 42.6758 22.1016V22.0781C41.707 22.2812 41.0039 22.4531 40.5664 22.5938ZM41.6445 23.3672H41.7148C41.8398 23.3672 42.2227 23.1797 42.8633 22.8047V22.7578H42.7695C42.0195 22.9297 41.6445 23.1328 41.6445 23.3672ZM40.9883 23.2734V23.3203H41.082C41.3633 23.2734 41.5039 23.1797 41.5039 23.0391H41.4102C41.1914 23.1172 41.0508 23.1953 40.9883 23.2734ZM37.5195 23.1797L37.4023 23.0859L37.3789 23.1094V23.1328L37.4727 23.1797H37.5195ZM37.8711 23.25H37.7773V23.2734C37.793 23.3359 37.8789 23.3672 38.0352 23.3672H38.293C38.293 23.2891 38.1523 23.25 37.8711 23.25ZM39.7695 23.25L39.7227 23.3203V23.3672C39.7383 23.4297 39.793 23.4609 39.8867 23.4609H40.0273L40.332 23.3906V23.3203L39.9102 23.25H39.7695ZM51.1602 5.74219H51.9336C52.3086 5.74219 52.918 5.90625 53.7617 6.23438C54.0742 6.23438 54.5664 6.42969 55.2383 6.82031H55.3555C55.5273 6.82031 55.9023 6.50781 56.4805 5.88281C56.6055 5.88281 56.8398 6.10156 57.1836 6.53906C57.3398 6.60156 57.5195 6.75 57.7227 6.98438V7.05469C56.8477 8.02344 56.4102 8.5625 56.4102 8.67188C55.9883 10.0938 55.707 10.8828 55.5664 11.0391C55.2695 11.3516 54.8477 11.625 54.3008 11.8594C53.6133 12.5469 52.9961 12.8906 52.4492 12.8906L51.7461 12.9141L50.2227 12.7734H49.918C49.793 12.7734 49.6289 13.2891 49.4258 14.3203L49.6133 14.3672H49.6836C49.9336 14.3672 50.207 14.2734 50.5039 14.0859L51.043 14.0391H51.9805C53.4805 14.0391 54.7148 14.1797 55.6836 14.4609C55.8242 14.5547 56.168 14.7266 56.7148 14.9766L57.5117 15.5625C58.1367 16.0938 58.5273 16.5703 58.6836 16.9922C59.2461 18.0859 59.5273 19.0156 59.5273 19.7812C59.5273 20.3594 59.0742 21.0781 58.168 21.9375L56.7383 22.9688C55.9883 23.4375 55.0977 23.6719 54.0664 23.6719L53.4102 23.7656C50.6289 23.7656 48.7461 23.2031 47.7617 22.0781C47.043 21.6406 46.6836 21.0703 46.6836 20.3672C46.418 19.8672 46.2852 19.2109 46.2852 18.3984L46.1914 17.8828L46.2852 17.5781H46.3555C46.4336 17.9375 46.4961 18.1172 46.543 18.1172H46.6133C46.832 17.1328 47.0039 16.4766 47.1289 16.1484V16.1016H47.1055C46.6523 16.8359 46.4258 17.2578 46.4258 17.3672H46.3789C46.3164 17.3672 46.2852 17.2812 46.2852 17.1094C46.3008 16.7969 46.582 16.2578 47.1289 15.4922C47.7383 14.9141 48.043 14.5859 48.043 14.5078C48.1992 13.2109 48.3164 12.4062 48.3945 12.0938C47.9883 11.3125 47.7852 10.6719 47.7852 10.1719L47.7617 9.77344C47.7617 9.50781 47.8633 9.02344 48.0664 8.32031C48.2383 8.14844 48.5664 7.72656 49.0508 7.05469C49.8789 6.17969 50.582 5.74219 51.1602 5.74219ZM50.293 6.32812V6.35156C50.8398 6.21094 51.1133 6.09375 51.1133 6V5.97656H51.043C50.8242 5.97656 50.5742 6.09375 50.293 6.32812ZM56.5508 6.42188L56.4805 6.49219V6.51562C56.5117 6.5625 56.5664 6.58594 56.6445 6.58594H56.7852V6.53906L56.6211 6.42188H56.5508ZM50.8789 6.82031V6.91406H50.9258L51.6289 6.65625V6.53906H51.418C51.0586 6.61719 50.8789 6.71094 50.8789 6.82031ZM49.4727 9.23438V9.35156C49.7227 10.5391 49.9023 11.1328 50.0117 11.1328C50.3711 11.4766 50.6836 11.6484 50.9492 11.6484C52.1367 11.6484 52.9883 11.3828 53.5039 10.8516C53.8945 10.4922 54.1758 10.1172 54.3477 9.72656C54.4727 9.50781 54.5352 9.34375 54.5352 9.23438V8.85938C54.5352 8.60938 54.3477 8.23438 53.9727 7.73438C53.1289 7.35938 52.543 7.17188 52.2148 7.17188C51.4805 7.17188 50.7695 7.49219 50.082 8.13281C49.6758 8.63281 49.4727 9 49.4727 9.23438ZM56.3633 7.82812V7.96875H56.4102C56.7383 7.6875 56.9648 7.44531 57.0898 7.24219V7.17188H57.0664C56.8945 7.17188 56.6602 7.39062 56.3633 7.82812ZM49.7305 7.78125L49.8242 7.80469C49.918 7.80469 50.043 7.70312 50.1992 7.5V7.40625H50.0586C49.8398 7.53125 49.7305 7.65625 49.7305 7.78125ZM54.8867 7.57031H54.7695V7.59375C54.8789 7.89062 55.0117 8.03906 55.168 8.03906C55.2148 8.03906 55.2383 8.01562 55.2383 7.96875C55.2383 7.85938 55.1211 7.72656 54.8867 7.57031ZM48.3008 8.83594H48.3711C48.418 8.80469 48.543 8.64844 48.7461 8.36719L48.6758 8.32031C48.582 8.32031 48.457 8.49219 48.3008 8.83594ZM47.9961 9.53906C47.9961 9.88281 48.0742 10.1406 48.2305 10.3125H48.3242C48.3711 10.3125 48.3945 10.2891 48.3945 10.2422C48.332 9.58594 48.2539 9.25781 48.1602 9.25781C48.082 9.25781 48.0273 9.35156 47.9961 9.53906ZM54.1367 10.8281V10.8516H54.2773C54.5586 10.8516 54.7383 10.5312 54.8164 9.89062V9.77344L54.793 9.72656H54.7227C54.332 10.3516 54.1367 10.7188 54.1367 10.8281ZM49.1914 9.82031L49.1445 9.89062C49.1445 10.1562 49.2305 10.3984 49.4023 10.6172H49.4258V10.5234C49.3945 10.1172 49.3164 9.88281 49.1914 9.82031ZM55.3555 10.7344H55.2852L55.2148 10.8516V10.875H55.2852C55.3008 10.875 55.3242 10.8281 55.3555 10.7344ZM53.668 11.3672H53.7383C53.9258 11.2891 54.0742 11.1797 54.1836 11.0391L54.1133 10.9453C53.8477 11.1328 53.6992 11.2734 53.668 11.3672ZM52.6836 11.6484V11.7188L52.8242 11.8125H52.918C52.9961 11.8125 53.1523 11.6953 53.3867 11.4609V11.4141H53.1758C52.9883 11.4141 52.8242 11.4922 52.6836 11.6484ZM48.418 11.5547H48.3242V11.625C48.4805 11.875 48.7148 12.0469 49.0273 12.1406V12.0938C48.8867 11.7344 48.6836 11.5547 48.418 11.5547ZM53.5977 11.5547L53.5039 11.6484V11.7422H53.5508L53.7383 11.5781V11.5547H53.5977ZM49.3789 11.7188L49.3086 11.7891C49.3711 11.9453 49.4727 12.0234 49.6133 12.0234L49.7305 11.8828C49.7305 11.8203 49.6133 11.7656 49.3789 11.7188ZM52.1914 11.8125L52.0977 11.9062C52.0977 11.9375 52.2305 11.9688 52.4961 12L52.6836 11.9766C52.6836 11.9141 52.582 11.8594 52.3789 11.8125H52.1914ZM49.8945 12L49.8711 12.0234V12.2109L49.9648 12.3047H50.3633V12.2109C50.0977 12.0703 49.9414 12 49.8945 12ZM50.6914 12.2578L50.5977 12.3281C50.5977 12.4688 50.8555 12.5391 51.3711 12.5391H52.0508C52.1445 12.5391 52.1992 12.5078 52.2148 12.4453C51.8867 12.3203 51.457 12.2578 50.9258 12.2578H50.6914ZM48.9805 12.5391L48.8633 12.6328V12.8203C48.8633 12.9453 48.9258 13.0234 49.0508 13.0547L49.1445 12.9844V12.6094L49.0508 12.5391H48.9805ZM52.6133 14.4141L52.0977 14.5078V14.5312C52.0977 14.6719 52.9023 14.7656 54.5117 14.8125L55.0039 14.9766H55.0508C55.0977 14.9766 55.1602 14.9531 55.2383 14.9062L55.918 14.9297V14.8594C55.8398 14.7344 55.6602 14.6719 55.3789 14.6719H55.1445C55.0664 14.6719 54.9961 14.6953 54.9336 14.7422L54.3711 14.5078C54.043 14.4453 53.5352 14.4141 52.8477 14.4141H52.6133ZM50.832 14.5078H50.7383H50.832ZM49.543 15.1641C49.543 15.1953 49.793 15.2266 50.293 15.2578C50.4961 15.2422 50.5977 15.2109 50.5977 15.1641C50.5195 15.0391 50.4258 14.9531 50.3164 14.9062H50.0586C49.7148 14.9531 49.543 15.0391 49.543 15.1641ZM53.5508 15.2578H53.5273V15.2812C53.5273 15.3438 53.7148 15.3828 54.0898 15.3984L54.1133 15.375V15.3281L53.5508 15.2578ZM55.8008 15.2578L55.7305 15.3516L55.8008 15.3984L55.8945 15.375V15.2578H55.8008ZM48.5117 15.5625L48.6289 15.6328H48.793L48.8867 15.5156V15.375L48.8164 15.2812C48.6602 15.2812 48.5586 15.375 48.5117 15.5625ZM47.5508 16.0078V16.0312L47.6211 16.1016C47.9961 16.0078 48.1836 15.8828 48.1836 15.7266V15.5625L48.1367 15.4922C47.9336 15.5703 47.7383 15.7422 47.5508 16.0078ZM56.1289 15.5859H56.1055C56.1055 15.6953 56.2852 15.7891 56.6445 15.8672L56.7383 15.8438V15.7969C56.6289 15.6562 56.457 15.5859 56.2227 15.5859H56.1523H56.1289ZM50.1992 15.6328L50.082 15.7266L50.1523 15.7969H50.3164V15.6797L50.2461 15.6328H50.1992ZM53.5039 15.6797L53.3867 15.7969C53.3867 15.8594 53.7773 15.9141 54.5586 15.9609C55.1992 16.1484 55.7539 16.4062 56.2227 16.7344L56.5508 16.7578L56.6445 16.6641V16.6406C56.5352 16.4219 56.0352 16.1797 55.1445 15.9141C54.3164 15.7578 53.7695 15.6797 53.5039 15.6797ZM51.9805 16.0078V16.0781L51.6055 16.1484L51.1133 16.0781L49.3789 16.1016C48.6602 16.7578 48.3008 17.2188 48.3008 17.4844L48.1602 17.6484V17.6953C48.2695 19.2578 48.4258 20.2266 48.6289 20.6016C48.6445 20.6797 48.9258 20.9141 49.4727 21.3047C49.4727 21.4141 49.9414 21.6016 50.8789 21.8672C52.2539 22.0703 53.3945 22.1719 54.3008 22.1719C55.4727 21.9531 56.2695 21.625 56.6914 21.1875C57.457 20.4062 57.8398 19.7656 57.8398 19.2656V19.1484C57.8398 18.8828 57.5352 18.3594 56.9258 17.5781C56.8477 17.3594 56.6133 17.1484 56.2227 16.9453C55.5352 16.4922 54.8398 16.2109 54.1367 16.1016L52.6836 16.0781V15.9375V15.9141H52.4023C52.1836 15.9141 52.043 15.9453 51.9805 16.0078ZM57.0195 16.0312H56.8555V16.0781L57.7695 16.8984H57.8164V16.8516C57.5977 16.4141 57.332 16.1406 57.0195 16.0312ZM48.3008 16.5234V16.5938H48.3711L48.6523 16.5V16.4062H48.6055C48.4023 16.4219 48.3008 16.4609 48.3008 16.5234ZM47.9727 16.7578V16.8516H48.043L48.1836 16.6875V16.6172C48.0898 16.6172 48.0195 16.6641 47.9727 16.7578ZM47.3398 17.3438L47.3633 17.4609H47.4102C47.4883 17.4609 47.582 17.2266 47.6914 16.7578H47.6445C47.4414 16.9141 47.3398 17.1094 47.3398 17.3438ZM56.832 16.8516H56.7383C56.7383 16.9297 56.9648 17.2422 57.418 17.7891V17.8125H57.4648V17.7188C57.2617 17.1406 57.0508 16.8516 56.832 16.8516ZM58.9414 18.5859H58.8477V18.6328L58.918 18.7266L58.9414 18.6797V18.5859ZM58.4023 18.75H58.2852V18.7969L58.3555 18.8906H58.4023L58.4961 18.7969L58.4023 18.75ZM46.543 18.9609L46.4961 18.9844V19.1484L46.5898 19.2188H46.6133V18.9609H46.543ZM58.7773 19.4062V19.4531C58.7773 19.5938 58.8086 19.6719 58.8711 19.6875H58.918C59.043 19.4688 59.1055 19.2344 59.1055 18.9844L59.082 18.9609H59.0117C58.8555 19.0703 58.7773 19.2188 58.7773 19.4062ZM47.8789 19.0312L47.832 19.1016L47.7852 19.5703C47.8008 19.8984 47.8477 20.0625 47.9258 20.0625H47.9727C48.0195 20.0312 48.043 19.9766 48.043 19.8984V19.5938C48.043 19.2188 48.0039 19.0312 47.9258 19.0312H47.8789ZM46.6602 19.3828H46.6133V19.4531C46.6289 19.5625 46.6602 19.6172 46.707 19.6172L46.7773 19.5703V19.5L46.6602 19.3828ZM57.3008 21V21.0469L57.3711 21.0938C57.7617 20.9844 57.957 20.7812 57.957 20.4844V20.3203H57.8867C57.4961 20.6172 57.3008 20.8438 57.3008 21ZM47.6445 20.8828L47.5508 21C47.5977 21.1094 47.6445 21.1641 47.6914 21.1641L47.7852 21.0469C47.7852 20.9844 47.7383 20.9297 47.6445 20.8828ZM48.6055 21.3281H48.5586V21.3984L48.6523 21.4922H48.793V21.4219C48.7773 21.3594 48.7148 21.3281 48.6055 21.3281ZM48.2773 21.4922L48.207 21.5859V21.6328H48.418V21.4922H48.2773ZM54.207 22.5938C52.2852 22.4688 51.1992 22.3594 50.9492 22.2656L50.3164 22.2188V22.2656C50.5195 22.4219 50.7852 22.5234 51.1133 22.5703L51.8164 22.5469L51.9805 22.6641L52.0039 22.6406H52.0508C52.4727 22.7188 52.918 22.7578 53.3867 22.7578H53.9023C54.5898 22.7578 55.0664 22.6719 55.332 22.5C55.9883 22.2656 56.3164 22.1328 56.3164 22.1016V22.0781C55.3477 22.2812 54.6445 22.4531 54.207 22.5938ZM55.2852 23.3672H55.3555C55.4805 23.3672 55.8633 23.1797 56.5039 22.8047V22.7578H56.4102C55.6602 22.9297 55.2852 23.1328 55.2852 23.3672ZM54.6289 23.2734V23.3203H54.7227C55.0039 23.2734 55.1445 23.1797 55.1445 23.0391H55.0508C54.832 23.1172 54.6914 23.1953 54.6289 23.2734ZM51.1602 23.1797L51.043 23.0859L51.0195 23.1094V23.1328L51.1133 23.1797H51.1602ZM51.5117 23.25H51.418V23.2734C51.4336 23.3359 51.5195 23.3672 51.6758 23.3672H51.9336C51.9336 23.2891 51.793 23.25 51.5117 23.25ZM53.4102 23.25L53.3633 23.3203V23.3672C53.3789 23.4297 53.4336 23.4609 53.5273 23.4609H53.668L53.9727 23.3906V23.3203L53.5508 23.25H53.4102ZM63.3008 7.19531L63.957 7.14844C64.1602 8.13281 64.1523 8.64062 63.9336 8.67188C63.7305 8.67188 64.0117 9.57031 64.7773 11.3672C65.1211 12.2266 65.3945 12.8516 65.5977 13.2422C66.0508 14.3516 66.3477 14.9062 66.4883 14.9062C66.5352 14.9062 66.6133 15 66.7227 15.1875L66.7461 15.2344H67.0039C67.1758 15.2344 67.4648 14.5547 67.8711 13.1953C69.3867 10.3516 69.8164 8.92188 69.1602 8.90625C69.1289 8.90625 69.0898 8.91406 69.043 8.92969C69.1367 8.30469 69.1602 7.77344 69.1133 7.33594L69.2305 7.24219C71.2617 7.28906 72.2773 7.36719 72.2773 7.47656C72.3555 7.47656 72.3945 7.875 72.3945 8.67188C72.2852 9.14062 72.1445 9.375 71.9727 9.375C71.8008 9.35938 71.707 9.35938 71.6914 9.375C71.6758 9.39062 71.7148 9.41406 71.8086 9.44531H71.6445C71.0352 10.4766 70.7305 11.1484 70.7305 11.4609C70.543 12.2266 70.3008 12.7578 70.0039 13.0547C69.5195 14.4609 69.1445 15.4297 68.8789 15.9609C68.7695 16.0859 68.6602 16.4922 68.5508 17.1797L67.543 18.8203C67.0586 19.9141 66.3945 20.9609 65.5508 21.9609L64.4023 22.7344C63.9336 22.8594 63.5664 22.9219 63.3008 22.9219C62.1445 22.9219 61.5664 22.8047 61.5664 22.5703C61.4414 22.4922 61.3398 22.2734 61.2617 21.9141C61.0273 21.6797 60.7383 20.8594 60.3945 19.4531V19.4062C60.3945 19.25 60.5508 19.1719 60.8633 19.1719C61.1289 19.1719 61.5977 19.0312 62.2695 18.75C62.4727 18.75 62.7539 19.4688 63.1133 20.9062C63.2227 21.2344 63.3086 21.3984 63.3711 21.3984H63.5586C63.6836 21.3516 63.8086 21.1641 63.9336 20.8359C64.0273 20.8359 64.3398 20.4297 64.8711 19.6172C65.1055 19.1172 65.3555 18.6562 65.6211 18.2344L65.6914 17.9531V17.4844C65.6758 17.25 65.5117 16.8984 65.1992 16.4297C64.8867 15.8984 64.6367 15.3984 64.4492 14.9297C63.7148 12.9609 62.8789 11.1328 61.9414 9.44531C61.8789 9.38281 61.8086 9.35156 61.7305 9.35156L60.3008 9.42188L60.2305 9.35156L60.1836 8.57812L60.1367 7.57031L60.5586 7.38281L62.8789 7.14844L63.3008 7.19531ZM69.9102 7.82812L69.6289 7.75781L70.168 7.99219L70.4961 7.92188H70.543L70.9414 7.96875V7.92188C70.9414 7.85938 70.7852 7.8125 70.4727 7.78125H70.1211C69.9805 7.78125 69.9102 7.79688 69.9102 7.82812ZM71.5508 7.75781L71.5039 7.80469V7.82812C71.5352 7.89062 71.582 7.92969 71.6445 7.94531L72.0664 7.89844V7.82812C72.0508 7.78125 71.9961 7.75781 71.9023 7.75781H71.5508ZM60.4648 8.67188L60.418 8.69531V8.88281L60.5352 8.97656H60.8398C61.168 8.96094 61.332 8.91406 61.332 8.83594C61.332 8.77344 61.043 8.71875 60.4648 8.67188ZM62.6211 8.92969L62.5508 8.97656C62.5508 9.16406 62.6602 9.40625 62.8789 9.70312H62.9023V9.44531C62.9023 9.17969 62.832 9.00781 62.6914 8.92969H62.6211ZM71.2227 8.57812V8.625L71.3164 8.71875C71.8633 8.59375 72.1367 8.49219 72.1367 8.41406L72.0664 8.34375H71.9727C71.5195 8.39062 71.2695 8.46875 71.2227 8.57812ZM70.8945 8.46094L70.8242 8.50781V8.625C70.8711 8.71875 70.9648 8.76562 71.1055 8.76562L71.1289 8.74219V8.625L70.9648 8.46094H70.8945ZM70.8008 9.25781H70.6836V9.375H70.8008V9.25781ZM70.707 9.9375H70.6367C70.0273 11.125 69.6914 11.7422 69.6289 11.7891V11.9531C69.6289 12.0156 69.6992 12.125 69.8398 12.2812L69.6758 12.75H69.7227C69.9414 12.4219 70.2539 11.6094 70.6602 10.3125L70.707 9.9375ZM67.2852 16.5469V16.6641H67.4023C67.6523 16.6641 67.9727 15.9141 68.3633 14.4141C68.3633 14.3828 68.4414 14.2969 68.5977 14.1562C68.5977 14.0312 68.6445 13.9453 68.7383 13.8984V13.875L68.668 13.6875C68.7461 13.5312 68.7461 13.5234 68.668 13.6641C68.6367 13.7266 68.5742 13.8438 68.4805 14.0156C68.2461 14.4375 68.0352 14.8203 67.8477 15.1641C67.7852 15.3828 67.5977 15.8438 67.2852 16.5469ZM64.7539 13.0078H64.7305V13.0547C65.0586 13.9609 65.2539 14.4141 65.3164 14.4141H65.3398V14.3672C65.043 13.4609 64.8477 13.0078 64.7539 13.0078ZM68.8555 15.0938H68.8789C69.1289 15.0938 69.332 14.5 69.4883 13.3125H69.4648C69.4023 13.3125 69.3242 13.5078 69.2305 13.8984C69.0117 14.4297 68.8867 14.8281 68.8555 15.0938ZM64.6367 13.9453L64.5664 14.0156V14.0859L64.6367 14.1328L64.7305 14.0859V14.0625L64.6367 13.9453ZM65.3398 14.5312L65.2695 14.6016V14.6484L65.4102 14.7656C65.457 14.7656 65.4805 14.7422 65.4805 14.6953C65.4492 14.6328 65.4102 14.5781 65.3633 14.5312H65.3398ZM67.0508 18.1875V18.2344H67.168C67.2773 18.2344 67.4961 17.8438 67.8242 17.0625V17.0391C67.6055 17.0391 67.3477 17.4219 67.0508 18.1875ZM66.1602 17.4609V17.4844H66.1836C66.3086 17.4844 66.3711 17.4297 66.3711 17.3203V17.1797H66.2773C66.1992 17.2109 66.1602 17.3047 66.1602 17.4609ZM66.8398 19.0312L66.6523 19.3125L66.6758 19.3828C66.8164 19.2734 66.8867 19.1562 66.8867 19.0312H66.8398ZM61.4961 19.5L61.4258 19.5703C61.5508 19.7422 61.6211 19.8984 61.6367 20.0391L61.8242 20.2266L61.918 20.2031V20.0859C61.918 19.8516 61.8164 19.6562 61.6133 19.5H61.4961ZM64.5664 21V21.0234C64.7227 21.0234 64.8789 20.8281 65.0352 20.4375H64.9883C64.8008 20.5312 64.6602 20.7188 64.5664 21ZM61.9648 20.6484H61.918V20.7188C61.918 20.8906 61.9805 21.0156 62.1055 21.0938L62.1758 21.0469V21C62.1758 20.875 62.1055 20.7578 61.9648 20.6484ZM65.1289 21.4922L64.918 21.7734L64.9648 21.8203H64.9883C65.4102 21.6016 65.6602 21.3828 65.7383 21.1641C65.6758 21.1016 65.6133 21.0703 65.5508 21.0703H65.457C65.3164 21.0703 65.207 21.2109 65.1289 21.4922ZM62.5977 21.5391H62.457V21.6094L62.5508 21.7266H62.7617L62.832 21.6797C62.832 21.6016 62.7539 21.5547 62.5977 21.5391ZM63.7227 21.9844L64.1445 22.2891H64.2383C64.3008 22.2734 64.332 22.2109 64.332 22.1016V21.9844C64.3164 21.9375 64.2539 21.9141 64.1445 21.9141H63.9336C63.793 21.9141 63.7227 21.9375 63.7227 21.9844ZM62.9023 22.1953L62.8789 22.2656C62.9258 22.375 63.0273 22.4297 63.1836 22.4297H63.5117L63.5586 22.3594V22.3359C63.5586 22.2578 63.4648 22.2109 63.2773 22.1953H62.9023Z" fill="#4A18D7"/>
</svg>
